# xmcd
#
# Track frame offsets:
#	150
#	15967
#	25042
#	34947
#	45692
#	58175
#	78620
#	92922
#	101067
#	113280
#	126395
#	140217
#	149012
#	163945
#	181017
#	197672
#	210005
#	221485
#	233697
#	248015
#	257617
#	269317
#	279335
#	291537
#
# Disc length: 4038
#
# Revision: 3
# Processed by: cddbd v1.5.1PL0 Copyright (c) Steve Scherf et al.
# Submitted via: CDex 1.50Beta6
# Normalized: r2:TDELIM( - )
#
DISCID=5d0fc418
DTITLE=Country Singers - The Best Of Country And Western
DYEAR=1900
DGENRE=Country
TTITLE0=Kenny Rogers - The Gambler
TTITLE1=Johnny Cash - Wreck of the Old '97
TTITLE2=Green - Six Days on the Road
TTITLE3=Garth Brooks - Against the Grain
TTITLE4=Dolly Parton - If You Need Me
TTITLE5=Kenny Rogers - Coward Of The Country
TTITLE6=Larry Cordie - Highway 40 Blues
TTITLE7=Willie Nelson - Things To Remember
TTITLE8=T. Lankford - Freightliner Fever
TTITLE9=Reba McFntire - Climb That Mountain High
TTITLE10=Tanya Tucker - If You Ain't Busy Tonight
TTITLE11=Dolly Parton - Hilly Billy Willy
TTITLE12=Trisha Yearwood - You Done Me Wrong (And That Ain't Right)
TTITLE13=Kenny Rogers - Lady
TTITLE14=Willie Rogers - The Golden Clips
TTITLE15=Kenny Rogers - Reuben James
TTITLE16=Johnny Cash - Big River
TTITLE17=Randy Travis - Heart of Hearts
TTITLE18=E. Rabbitt - Drivin' My Life Away
TTITLE19=Linn Anderson - Snowbird
TTITLE20=S. Buono - Ode To 10-33
TTITLE21=Johnny Cash - Hey Porteer
TTITLE22=Trisha Yearwood - That's What I like About You
TTITLE23=Billie Yo Spears - Try A Little Kindness
EXTD=
EXTT0=Kenny Rogers
EXTT1=Johnny Cash
EXTT2=Green
EXTT3=Garth Brooks
EXTT4=Dolly Parton
EXTT5=Kenny Rogers
EXTT6=Larry Cordie
EXTT7=Willie Nelson
EXTT8=T. Lankford
EXTT9=Reba McEntire
EXTT10=Tanya Tucker
EXTT11=Dolly Parton
EXTT12=Trisha Yearwood
EXTT13=Kenny Rogers
EXTT14=Willie Nelson
EXTT15=Kenny Rogers
EXTT16=Johnny Cash
EXTT17=Randy Travis
EXTT18=E. Rabbitt
EXTT19=Linn Anderson
EXTT20=S. Buono
EXTT21=Johnny Cash
EXTT22=Trisha Yearwood
EXTT23=Billie Yo Spears
PLAYORDER=
